# xmcd
#
# Track frame offsets:
#	150
#	25817
#	38358
#	61855
#	81505
#	103507
#	131489
#	148019
#	180994
#	191739
#	202794
#	219280
#	234115
#	246729
#	266627
#
# Disc length: 3994 seconds
#
# Revision: 0
# Processed by: cddbd v1.5.2PL0 Copyright (c) Steve Scherf et al.
# Submitted via: FairStars CD Ripper 1.80
#
DISCID=c80f980f
DTITLE=Various Artist - Guitar Sessions Disk 1
DYEAR=2002
DGENRE=Blues
TTITLE0=Thin Lizzy - Whiskey in the Jar
TTITLE1=Black Sabbath - Paranoid
TTITLE2=Santana - Black Magic Woman
TTITLE3=Heart - Barracuda
TTITLE4=Jeff Beck - Freeway Jam
TTITLE5=Status Quo - Roadhouse Blues
TTITLE6=Steve Vai - I Would Love To
TTITLE7=Gary Moore - Parisienne Walkways
TTITLE8=Stevie Ray Vaughan - The House is Rockin'
TTITLE9=The Yardbirds - For your Love
TTITLE10=Kevin Borich - Goin' Down Town
TTITLE11=Ted Nugent - Free For All
TTITLE12=Fleetwood Mac - Man of the World
TTITLE13=Ian Moss - Out of the Fire
TTITLE14=George Benson - California Dreamin'
EXTD=
EXTT0=
EXTT1=
EXTT2=
EXTT3=
EXTT4=
EXTT5=
EXTT6=
EXTT7=
EXTT8=
EXTT9=
EXTT10=
EXTT11=
EXTT12=
EXTT13=
EXTT14=
PLAYORDER=
